<?xml version="1.0" standalone="no"?>
<!DOCTYPE svg PUBLIC "-//W3C//DTD SVG 20010904//EN"
 "http://www.w3.org/TR/2001/REC-SVG-20010904/DTD/svg10.dtd">
<svg version="1.0" xmlns="http://www.w3.org/2000/svg"
 width="260.000000pt" height="260.000000pt" viewBox="0 0 260.000000 260.000000"
 preserveAspectRatio="xMidYMid meet">
<metadata>
Created by potrace 1.11, written by Peter Selinger 2001-2013
</metadata>
<g transform="translate(0.000000,260.000000) scale(0.100000,-0.100000)"
fill="#000000" stroke="none">
<path d="M2130 2479 c-63 -5 -142 -11 -175 -13 -171 -15 -334 -20 -370 -13
-116 24 -150 26 -197 12 -25 -7 -49 -11 -52 -8 -6 7 -155 7 -556 0 -186 -3
-244 0 -279 11 -34 12 -80 14 -208 9 -90 -2 -166 -6 -167 -8 -2 -2 0 -51 4
-108 4 -59 3 -144 -2 -195 -12 -109 -17 -711 -7 -816 5 -49 4 -77 -3 -81 -7
-5 -6 -22 2 -56 10 -39 10 -63 0 -119 -19 -106 -21 -287 -5 -379 8 -44 14 -98
14 -120 -1 -22 2 -141 6 -264 l8 -223 186 6 c102 3 231 10 286 16 169 18 366
22 412 9 47 -13 19 -13 591 -4 291 4 444 3 465 -4 40 -14 187 -18 296 -8 46 4
86 8 87 10 2 2 0 37 -6 78 -13 104 -12 215 3 274 13 49 14 92 6 676 -1 92 1
171 5 177 3 6 -1 31 -9 57 -12 35 -14 53 -6 78 25 76 31 239 16 389 -4 40 -9
100 -10 133 -2 33 -6 85 -10 115 -4 30 -8 111 -9 180 -2 69 -4 141 -4 160 l-2
35 -98 1 c-53 0 -149 -3 -212 -7z m-1638 -285 c15 -8 32 -14 38 -14 11 0 91
-49 100 -62 3 -4 46 -31 95 -61 72 -43 91 -59 93 -80 3 -23 20 -35 125 -87 67
-33 156 -79 197 -102 41 -22 89 -47 105 -55 17 -8 37 -18 45 -23 8 -5 38 -20
65 -34 28 -13 129 -62 226 -110 165 -81 178 -86 222 -80 32 5 56 2 79 -9 18
-8 56 -25 83 -37 124 -55 201 -94 217 -108 18 -15 23 -66 12 -109 -13 -49
-152 -37 -255 23 -119 69 -259 164 -260 177 -1 6 -1 17 0 22 1 10 -39 31 -354
192 -71 37 -132 69 -135 73 -3 3 -52 29 -110 58 -123 61 -218 112 -251 136
-18 12 -47 16 -131 16 -60 0 -108 4 -108 8 0 5 -10 14 -22 20 -28 14 -64 35
-144 85 -34 20 -65 37 -68 37 -14 0 -66 44 -66 56 0 11 88 75 120 87 17 6 44
0 82 -19z m492 -408 c-3 -8 -48 -53 -100 -101 -66 -61 -94 -93 -94 -110 0 -29
40 -117 78 -175 17 -24 28 -48 25 -53 -14 -23 -134 28 -211 90 -86 70 -95 148
-25 213 61 57 117 91 208 126 70 27 127 31 119 10z m171 -151 c55 -27 70 -86
36 -142 -26 -41 -53 -49 -106 -29 -51 20 -70 55 -59 111 13 70 60 92 129 60z
m445 -195 c0 -21 -37 -97 -57 -118 -7 -7 -13 -17 -13 -21 0 -4 -25 -34 -56
-65 -96 -100 -186 -122 -288 -72 -55 27 -135 100 -148 137 -7 17 -3 19 37 19
24 0 70 -10 101 -21 31 -12 77 -22 103 -22 42 -1 58 7 146 66 55 36 113 78
129 92 35 30 46 31 46 5z m-850 -331 c74 -35 295 -79 398 -79 86 0 247 42 272
71 3 3 12 8 21 11 14 5 616 12 765 9 39 -1 43 -4 58 -41 32 -81 11 -168 -48
-200 -21 -10 -28 -11 -41 0 -21 17 -19 53 5 75 21 19 26 60 11 84 -7 11 -70
12 -357 9 l-349 -5 -66 -31 c-37 -16 -93 -35 -124 -42 -79 -16 -253 -15 -352
4 -95 17 -224 54 -238 67 -5 5 -89 9 -187 9 -167 0 -178 1 -188 20 -8 14 -8
26 0 41 11 19 18 20 198 17 148 -2 194 -6 222 -19z"/>
<path d="M403 2133 c-18 -9 -33 -20 -33 -23 0 -4 25 -17 55 -30 30 -13 55 -27
55 -31 0 -4 11 -10 25 -13 13 -3 47 -20 75 -36 39 -23 63 -30 103 -30 29 0 59
5 67 10 13 8 13 11 0 25 -24 23 -271 145 -294 144 -12 0 -36 -8 -53 -16z"/>
<path d="M1803 1438 c-13 -6 -23 -16 -23 -23 0 -6 10 -17 23 -24 12 -7 40 -23
62 -36 115 -70 215 -115 253 -115 19 0 22 5 22 38 0 36 -3 40 -42 57 -161 69
-270 115 -272 114 0 0 -11 -5 -23 -11z"/>
</g>
</svg>
